<?xml version="1.0" standalone="no"?>
<!DOCTYPE svg PUBLIC "-//W3C//DTD SVG 20010904//EN"
 "http://www.w3.org/TR/2001/REC-SVG-20010904/DTD/svg10.dtd">
<svg version="1.0" xmlns="http://www.w3.org/2000/svg"
 width="512.000000pt" height="512.000000pt" viewBox="0 0 512.000000 512.000000"
 preserveAspectRatio="xMidYMid meet">

<g transform="translate(0.000000,512.000000) scale(0.100000,-0.100000)"
fill="#000000" stroke="none">
<path d="M2405 5114 c-460 -35 -891 -180 -1255 -422 -630 -419 -1028 -1063
-1131 -1832 -16 -122 -16 -478 0 -600 65 -484 253 -933 541 -1295 301 -378
729 -676 1190 -829 289 -96 510 -131 815 -131 231 1 331 10 527 51 979 204
1768 993 1972 1972 41 196 50 296 51 527 0 305 -35 526 -131 815 -307 925
-1110 1588 -2090 1725 -103 15 -397 26 -489 19z m1204 -965 c204 -33 390 -170
479 -352 72 -148 67 -64 67 -1237 0 -995 -1 -1058 -18 -1114 -72 -234 -229
-391 -463 -463 -56 -17 -119 -18 -1104 -18 -1142 0 -1090 -3 -1225 60 -178 82
-307 234 -362 426 -17 60 -18 128 -18 1109 0 981 1 1049 18 1109 74 259 279
441 542 481 80 12 2010 12 2084 -1z"/>
<path d="M1501 3855 c-110 -34 -218 -149 -241 -258 -8 -37 -10 -340 -8 -1067
l3 -1015 28 -57 c36 -74 101 -139 175 -175 l57 -28 1019 -3 c905 -2 1026 -1
1074 13 122 36 210 123 246 245 14 47 16 170 16 1050 0 880 -2 1003 -16 1050
-36 121 -123 208 -244 244 -47 14 -169 16 -1059 15 -823 0 -1014 -3 -1050 -14z
m2058 -221 c126 -83 139 -253 27 -351 -96 -85 -249 -63 -322 46 -31 47 -42
132 -24 185 23 72 94 132 170 146 44 8 116 -5 149 -26z m-764 -259 c112 -33
200 -79 294 -154 136 -108 235 -256 287 -426 24 -80 27 -106 27 -235 0 -129
-3 -155 -27 -235 -34 -113 -81 -202 -155 -294 -230 -290 -622 -395 -969 -261
-161 62 -332 208 -422 359 -93 156 -134 352 -112 528 24 191 98 347 230 485
129 135 283 219 459 253 114 21 274 13 388 -20z"/>
<path d="M2406 3125 c-191 -53 -360 -224 -411 -415 -19 -71 -19 -229 0 -300
26 -98 75 -180 155 -260 119 -120 239 -170 405 -170 170 0 297 52 415 170 117
117 170 245 170 410 0 165 -53 293 -170 410 -80 81 -162 128 -267 155 -70 18
-230 18 -297 0z"/>
</g>
</svg>
